<svg width="287" height="178" viewBox="0 0 287 178" fill="none" xmlns="http://www.w3.org/2000/svg">
<path d="M182.035 18.957H104.576V158.138H182.035V18.957Z" fill="#FF5F00"/>
<path d="M109.495 88.5453C109.495 61.4961 122.036 35.6763 143.183 18.955C104.823 -11.291 49.0027 -4.65168 18.7567 33.955C-11.2434 72.3158 -4.60401 127.89 34.0027 158.136C66.2159 183.464 111.216 183.464 143.429 158.136C122.036 141.414 109.495 115.595 109.495 88.5453Z" fill="#EB001B"/>
<path d="M286.546 88.5453C286.546 137.48 246.956 177.07 198.021 177.07C178.103 177.07 158.923 170.431 143.431 158.136C181.791 127.89 188.431 72.3158 158.185 33.7091C153.759 28.2993 148.841 23.1353 143.431 18.955C181.791 -11.291 237.611 -4.65168 267.611 33.955C279.907 49.4469 286.546 68.6273 286.546 88.5453Z" fill="#F79E1B"/>
</svg>
