<svg width="1223" height="390" viewBox="0 0 1223 390" fill="none" xmlns="http://www.w3.org/2000/svg">
<g filter="url(#filter0_d_108_10867)">
<path d="M72.498 194.6C72.498 127.165 127.165 72.498 194.6 72.498C262.035 72.498 316.702 127.165 316.702 194.6C316.702 262.035 262.035 316.702 194.6 316.702C127.165 316.702 72.498 262.035 72.498 194.6Z" fill="url(#paint0_linear_108_10867)" shape-rendering="crispEdges"/>
<path d="M72.498 194.6C72.498 127.165 127.165 72.498 194.6 72.498C262.035 72.498 316.702 127.165 316.702 194.6C316.702 262.035 262.035 316.702 194.6 316.702C127.165 316.702 72.498 262.035 72.498 194.6Z" fill="#05121F" shape-rendering="crispEdges"/>
<path d="M80.1289 194.6C80.1289 131.38 131.379 80.1294 194.6 80.1294C257.82 80.1294 309.07 131.38 309.07 194.6C309.07 257.82 257.82 309.071 194.6 309.071C131.379 309.071 80.1289 257.82 80.1289 194.6Z" fill="url(#paint1_linear_108_10867)"/>
<path fill-rule="evenodd" clip-rule="evenodd" d="M235.786 202.026L235.6 159.022C235.591 156.808 234.71 154.71 233.144 153.146C231.579 151.581 229.479 150.691 227.263 150.691C225.046 150.691 222.946 151.581 221.381 153.146C219.815 154.711 218.925 156.809 218.925 159.026V230.174C218.925 236.648 216.352 242.805 211.775 247.379C207.199 251.955 201.04 254.527 194.566 254.527C188.091 254.527 181.93 251.955 177.355 247.379C172.778 242.805 170.206 236.648 170.206 230.174V159.026C170.206 156.809 169.315 154.711 167.75 153.146C166.184 151.581 164.085 150.691 161.868 150.691C159.651 150.691 157.552 151.581 155.986 153.146C154.421 154.711 153.54 156.808 153.531 159.022L153.345 202.026C152.676 207.409 150.22 212.391 146.382 216.229C141.806 220.804 135.646 223.377 129.171 223.377C122.697 223.377 116.536 220.804 111.961 216.229C108.122 212.391 105.666 207.407 104.997 202.021L104.799 190.194L82.808 190.19H72.498L72.5806 188.513C74.0696 158.199 86.7405 129.718 108.202 108.261C131.181 85.2884 162.067 72.498 194.564 72.498C227.062 72.498 257.947 85.2884 280.925 108.261C295.962 123.294 306.863 142.006 312.439 162.526L312.987 164.543H296.362L296.015 163.414C290.934 146.873 281.831 131.819 269.596 119.586C249.63 99.6262 222.8 88.5154 194.563 88.5154C166.327 88.5154 139.496 99.6262 119.53 119.586C104.85 134.264 94.7688 152.89 90.6071 173.229L90.4131 174.177H120.833V199.023C120.833 201.239 121.723 203.339 123.289 204.904C124.854 206.468 126.954 207.359 129.171 207.359C131.387 207.359 133.487 206.468 135.053 204.904C136.618 203.339 137.509 201.24 137.509 199.023V159.026C137.509 152.554 140.081 146.396 144.658 141.821C149.233 137.245 155.394 134.673 161.868 134.673C168.344 134.673 174.502 137.245 179.078 141.821C183.655 146.395 186.227 152.554 186.227 159.026V230.175C186.227 232.391 187.118 234.49 188.683 236.055C190.249 237.62 192.349 238.509 194.566 238.509C196.782 238.509 198.882 237.62 200.447 236.055C202.013 234.49 202.902 232.391 202.902 230.175V159.026C202.902 152.554 205.475 146.396 210.051 141.821C214.628 137.245 220.787 134.673 227.263 134.673C233.738 134.673 239.897 137.245 244.473 141.821C249.049 146.395 251.622 152.554 251.622 159.026V199.023C251.622 201.239 252.512 203.339 254.077 204.904C255.643 206.468 257.742 207.359 259.959 207.359C262.176 207.359 264.275 206.468 265.841 204.904C267.406 203.339 268.297 201.24 268.297 199.023V174.177H298.714L298.712 174.165H315.003L315.216 175.515C316.206 181.826 316.702 188.212 316.702 194.599C316.702 227.088 303.907 257.966 280.929 280.939C257.95 303.912 227.064 316.702 194.568 316.702C162.07 316.702 131.184 303.912 108.205 280.939C86.9448 259.684 74.2987 231.519 72.627 201.499L72.5331 199.811H88.5711L88.6651 201.311C90.2779 227.134 101.239 251.323 119.535 269.614C139.5 289.575 166.332 300.685 194.568 300.685C222.805 300.685 249.634 289.575 269.601 269.614C289.567 249.653 300.681 222.83 300.681 194.601C300.681 193.386 300.661 192.172 300.62 190.958L300.594 190.196H284.334L284.135 202.021C283.466 207.407 281.01 212.391 277.171 216.229C272.595 220.804 266.435 223.377 259.96 223.377C253.486 223.377 247.325 220.804 242.749 216.229C238.912 212.392 236.455 207.411 235.786 202.026Z" fill="url(#paint2_linear_108_10867)"/>
</g>
<path d="M444.222 173.655V242.829H461.409V146.372H442.953L412.944 191.982L382.937 146.372H364.481V242.829H381.668V173.929L412.522 219.127H413.086L444.222 173.655Z" fill="#222222"/>
<path d="M577.939 213.064L525.225 146.372H509.188V242.829H526.374V174.206L580.638 242.829H595.126V146.372H577.939V213.064Z" fill="#222222"/>
<path d="M715.882 146.372H642.904V242.829H716.587V227.533H660.092V201.765H696.52V186.469H660.092V161.666H715.882V146.372Z" fill="#222222"/>
<path d="M837.344 146.372H764.366V242.829H838.046V227.533H781.552V201.765H817.981V186.469H781.552V161.666H837.344V146.372Z" fill="#222222"/>
<g clip-path="url(#clip0_108_10867)">
<path d="M1113.21 203.328V241.686H1095.67V203.741L1056.34 145.447H1076.85L1104.58 188.067L1132.59 145.447H1152.53L1113.21 203.328Z" fill="#222222"/>
<path d="M1113.21 203.328V241.686H1095.67V203.741L1056.34 145.447H1076.85L1104.58 188.067L1132.59 145.447H1152.53L1113.21 203.328Z" fill="url(#paint3_linear_108_10867)"/>
<path d="M1021.58 144.76L1065.15 241.687H1046.76L1036.72 218.452H989.892L979.707 241.687H961.883L1005.45 144.76H1021.58ZM1030.35 203.466L1013.23 164.97L996.258 203.466H1030.35Z" fill="#222222"/>
<path d="M1021.58 144.76L1065.15 241.687H1046.76L1036.72 218.452H989.892L979.707 241.687H961.883L1005.45 144.76H1021.58ZM1030.35 203.466L1013.23 164.97L996.258 203.466H1030.35Z" fill="url(#paint4_linear_108_10867)"/>
<path d="M962.497 177.756C962.497 183.163 961.46 187.929 959.385 192.054C957.31 196.179 954.481 199.616 950.897 202.365C947.314 205.115 943.117 207.223 938.307 208.69C933.497 210.064 928.358 210.752 922.888 210.752H903.224V241.686H885.824V145.447H924.868C930.621 145.447 935.808 146.226 940.429 147.784C945.145 149.251 949.105 151.404 952.312 154.246C955.612 157.087 958.112 160.478 959.81 164.42C961.602 168.361 962.497 172.806 962.497 177.756ZM944.814 178.168C944.814 172.394 942.881 168.086 939.014 165.245C935.148 162.312 929.961 160.845 923.453 160.845H903.224V195.491H923.453C930.055 195.491 935.242 193.933 939.014 190.817C942.881 187.609 944.814 183.392 944.814 178.168Z" fill="#222222"/>
<path d="M962.497 177.756C962.497 183.163 961.46 187.929 959.385 192.054C957.31 196.179 954.481 199.616 950.897 202.365C947.314 205.115 943.117 207.223 938.307 208.69C933.497 210.064 928.358 210.752 922.888 210.752H903.224V241.686H885.824V145.447H924.868C930.621 145.447 935.808 146.226 940.429 147.784C945.145 149.251 949.105 151.404 952.312 154.246C955.612 157.087 958.112 160.478 959.81 164.42C961.602 168.361 962.497 172.806 962.497 177.756ZM944.814 178.168C944.814 172.394 942.881 168.086 939.014 165.245C935.148 162.312 929.961 160.845 923.453 160.845H903.224V195.491H923.453C930.055 195.491 935.242 193.933 939.014 190.817C942.881 187.609 944.814 183.392 944.814 178.168Z" fill="url(#paint5_linear_108_10867)"/>
</g>
<defs>
<filter id="filter0_d_108_10867" x="-2.67029e-05" y="-2.67029e-05" width="389.2" height="389.2" filterUnits="userSpaceOnUse" color-interpolation-filters="sRGB">
<feFlood flood-opacity="0" result="BackgroundImageFix"/>
<feColorMatrix in="SourceAlpha" type="matrix" values="0 0 0 0 0 0 0 0 0 0 0 0 0 0 0 0 0 0 127 0" result="hardAlpha"/>
<feMorphology radius="22.8941" operator="erode" in="SourceAlpha" result="effect1_dropShadow_108_10867"/>
<feOffset/>
<feGaussianBlur stdDeviation="47.6961"/>
<feComposite in2="hardAlpha" operator="out"/>
<feColorMatrix type="matrix" values="0 0 0 0 1 0 0 0 0 0.410735 0 0 0 0 0 0 0 0 0.3 0"/>
<feBlend mode="normal" in2="BackgroundImageFix" result="effect1_dropShadow_108_10867"/>
<feBlend mode="normal" in="SourceGraphic" in2="effect1_dropShadow_108_10867" result="shape"/>
</filter>
<linearGradient id="paint0_linear_108_10867" x1="72.498" y1="72.498" x2="316.702" y2="316.702" gradientUnits="userSpaceOnUse">
<stop stop-color="#FF6900"/>
<stop offset="0.5" stop-color="#FE9A00"/>
<stop offset="1" stop-color="#FDC700"/>
</linearGradient>
<linearGradient id="paint1_linear_108_10867" x1="219.989" y1="289.378" x2="272.921" y2="44.4361" gradientUnits="userSpaceOnUse">
<stop stop-color="#05121F"/>
<stop offset="1" stop-color="#05121F"/>
</linearGradient>
<linearGradient id="paint2_linear_108_10867" x1="123.982" y1="281.458" x2="262.403" y2="113.021" gradientUnits="userSpaceOnUse">
<stop stop-color="#E88C1F"/>
<stop offset="1" stop-color="#FFDC46"/>
</linearGradient>
<linearGradient id="paint3_linear_108_10867" x1="1091.79" y1="242.379" x2="1129.59" y2="106.447" gradientUnits="userSpaceOnUse">
<stop stop-color="#E88C1F"/>
<stop offset="1" stop-color="#FFDC46"/>
</linearGradient>
<linearGradient id="paint4_linear_108_10867" x1="1004.19" y1="242.379" x2="1036.65" y2="103.871" gradientUnits="userSpaceOnUse">
<stop stop-color="#E88C1F"/>
<stop offset="1" stop-color="#FFDC46"/>
</linearGradient>
<linearGradient id="paint5_linear_108_10867" x1="921.903" y1="242.379" x2="962.365" y2="106.407" gradientUnits="userSpaceOnUse">
<stop stop-color="#E88C1F"/>
<stop offset="1" stop-color="#FFDC46"/>
</linearGradient>
<clipPath id="clip0_108_10867">
<rect width="266.674" height="99.682" fill="white" transform="translate(885.824 144.759)"/>
</clipPath>
</defs>
</svg>
