<svg width="287" height="92" viewBox="0 0 287 92" fill="none" xmlns="http://www.w3.org/2000/svg">
<path d="M186.637 0C166.292 0 148.11 10.4152 148.11 29.6581C148.11 51.726 180.356 53.2503 180.356 64.3366C180.356 69.0046 174.94 73.1831 165.688 73.1831C152.559 73.1831 142.746 67.3444 142.746 67.3444L138.548 86.7626C138.548 86.7626 149.852 91.6945 164.86 91.6945C187.104 91.6945 204.608 80.768 204.608 61.1961C204.608 37.8773 172.227 36.3984 172.227 26.1084C172.227 22.4517 176.674 18.4451 185.899 18.4451C196.307 18.4451 204.799 22.6914 204.799 22.6914L208.908 3.93672C208.908 3.93672 199.668 0 186.637 0ZM0.492654 1.41545L0 4.24635C0 4.24635 8.55953 5.7935 16.2688 8.87973C26.1951 12.4187 26.9022 14.4789 28.5739 20.8779L46.7909 90.2349H71.2109L108.832 1.41545H84.4678L60.2941 61.8043L50.4299 10.6159C49.5252 4.7574 44.9429 1.41545 39.3339 1.41545H0.492654ZM118.629 1.41545L99.5161 90.2349H122.749L141.795 1.41545H118.629ZM248.208 1.41545C242.606 1.41545 239.637 4.37774 237.459 9.55428L203.421 90.2349H227.785L232.499 76.7881H262.181L265.048 90.2349H286.545L267.791 1.41545H248.208ZM251.377 25.4117L258.599 58.7411H239.251L251.377 25.4117Z" fill="#142687"/>
</svg>
