<svg width="183" height="113" viewBox="0 0 183 113" fill="none" xmlns="http://www.w3.org/2000/svg">
<path d="M0.0915797 2.42166C9.39509 -0.326407 9.39523 -0.326813 19.9231 0.43421C21.01 0.433157 22.0649 0.432542 23.1199 0.43152C25.4172 0.425247 27.7145 0.419896 30.0118 0.415384C33.5849 0.415609 37.1578 0.413353 40.7308 0.396558C43.0804 0.385122 45.4301 0.377796 47.7797 0.375043C49.4945 0.3744 49.4946 0.374778 51.1755 0.374147C60.4626 0.315875 70.5088 0.168053 79.2132 3.84524L82.3078 5.46246C85.3194 6.98367 87.7465 8.40069 90.193 10.7229C94.5064 17.6261 95.9919 24.2669 95.9286 32.3563L95.8479 35.354C95.8153 39.0689 95.8052 42.7768 95.561 46.4845C94.0202 55.4767 90.0062 60.932 82.7201 66.3142L80.8734 67.5979C81.8099 74.3356 85.6083 82.9578 90.9102 87.4671C97.5128 90.0798 97.5128 90.0798 117.635 88.3277C128.845 87.4424 128.845 87.4424 140.067 86.7338C143.031 86.5468 145.996 86.3586 148.96 86.1654C159.216 85.497 169.736 84.3126 180.015 85.0395C181.211 86.0303 181.212 86.0303 181.052 88.4066C181.054 90.0381 181.053 90.0381 181.055 91.6374L181.058 95.13C181.052 96.9735 181.048 98.8168 181.053 100.66C181.055 101.282 181.056 101.885 181.058 102.488L181.055 105.981C181.053 107.875 181.025 109.769 180.933 111.661C178.255 112.986 178.255 112.986 175.041 112.706C173.946 112.703 173.946 112.703 172.872 112.701C170.463 112.705 168.054 112.706 165.645 112.701C164.756 112.698 163.894 112.696 163.032 112.693C148.528 112.675 134.029 112.52 119.528 112.235C118.058 112.206 118.058 112.206 116.617 112.177C107.194 111.996 97.7724 111.805 88.358 111.342C87.6092 111.303 86.8821 111.265 86.1554 111.227C80.4754 110.944 75.8393 110.004 70.7685 107.376C64.8647 101.162 64.8647 101.162 62.5139 92.6701C61.5985 89.2521 60.651 85.8742 59.5592 82.5079L58.383 79.2447C57.3216 76.2721 57.3216 76.2721 56.0881 74.0238C54.35 73.193 54.35 73.193 49.7125 72.9839L46.7936 72.991C44.026 72.9843 42.0452 72.7834 39.5645 74.0238C39.7491 77.5678 39.9213 81.1118 40.0701 84.6576C40.1293 86.1045 40.1903 87.5514 40.253 88.9982C40.3654 91.1305 40.4775 93.2618 40.5632 95.3954C40.5895 96.0841 40.6147 96.7529 40.6403 97.4214C40.7861 99.8436 40.745 101.876 40.4825 104.317C38.1707 106.825 37.106 107.043 33.6658 107.372L30.0979 107.3C25.5337 107.245 21.1005 107.04 16.6151 106.153C15.5005 104.257 15.501 104.257 15.6631 101.62C15.7017 100.42 15.7386 99.2538 15.7761 98.0883C15.816 96.7362 15.8559 95.384 15.8962 94.0319C16.0204 90.2181 16.1364 86.4037 16.2467 82.5894C16.2708 81.751 16.2941 80.9371 16.3175 80.1233C16.6315 69.3574 16.8578 58.5902 17.0714 47.822C17.1118 45.7781 17.1517 43.7341 17.1925 41.6902C17.3073 35.9446 17.4211 30.1987 17.5331 24.4531C15.4892 23.4311 15.4892 23.4311 9.9885 23.4544L7.77962 23.4777C6.33333 23.4859 4.88704 23.4942 3.44076 23.5028L0.0915797 23.5351C0.0727471 21.0483 0.0576162 18.5616 0.0467567 16.0748L0.0342063 13.0358L0.0108983 10.0075L0.00193369 7.12987C-0.00664371 5.56021 0.0115889 3.98931 0.0915797 2.42166ZM135.321 1.27419C147.97 1.32671 165.573 -0.15368 176.343 7.92952C181.88 14.1426 182.969 22.0463 183 30.1151C182.99 31.2921 182.99 31.2923 182.98 32.4459C182.979 34.1175 182.978 35.7891 182.975 37.4607C182.957 40.0634 182.941 42.6661 182.939 45.2689C182.939 46.9841 182.937 48.6994 182.932 50.4146C182.929 51.2497 182.926 52.0603 182.923 52.8709C182.922 53.6728 182.921 54.4511 182.92 55.2295C182.914 55.978 182.908 56.7047 182.902 57.4312C182.873 62.689 181.436 67.0691 178.179 71.2698C170.186 78.1553 159.494 79.1236 149.402 79.9996C148.434 80.082 148.434 80.0819 147.484 80.1627C139.771 80.8475 132.055 81.5178 124.311 81.6894C123.207 81.7006 123.207 81.7008 122.125 81.7118C115.566 81.8368 110.735 80.7812 105.831 76.2039C102.008 71.1192 101.762 64.3939 101.732 58.2398C101.741 57.4226 101.749 56.6295 101.757 55.8364C101.832 40.7473 100.304 22.1273 108.413 8.84749C115.033 1.91894 122.639 1.17813 131.834 1.21682L135.321 1.27419ZM148.459 20.4369C142.812 20.4459 137.63 20.6941 132.28 22.6171C130.448 25.0128 129.592 26.7043 129.199 29.7036L129.225 32.385L129.239 35.3648L129.297 38.4522C129.328 45.1419 128.301 54.1326 131.362 60.2541C134.124 63.6274 134.124 63.6274 143.296 64.844C148.545 65.3109 155.151 65.2196 159.476 61.8426C163.85 56.3337 163.85 56.3337 163.778 41.2456L163.721 38.2227C163.699 33.5315 164.066 28.9327 162.573 24.4531C158.679 21.0502 155.721 20.3448 150.74 20.3688L148.459 20.4369ZM57.7519 15.0438C54.7631 15.0814 52.3469 14.849 49.6623 16.1913C47.6084 19.7657 47.6082 19.7658 47.6174 27.4347C47.6299 28.2935 47.6421 29.1273 47.6542 29.9609C47.7225 37.3558 46.3841 47.4552 49.8523 54.1223C51.4982 55.6642 51.4983 55.6643 53.8147 56.0551L56.4323 55.9511L59.0356 55.883C63.3036 55.5183 66.8347 55.2238 69.8577 51.9923C71.3713 47.2526 71.8825 43.222 71.6228 38.2657L71.4642 36.0425C71.091 30.3368 71.4866 23.2104 68.9397 18.0272C66.2786 15.8593 64.5896 15.2959 61.1549 14.9721L57.7519 15.0438Z" fill="#ED4032"/>
</svg>
